<svg width="24" height="24" viewBox="0 0 24 24" fill="none" xmlns="http://www.w3.org/2000/svg">
<path d="M22.2991 3.37516C21.165 2.26782 19.5983 1.71439 17.5981 1.71439C17.0445 1.71439 16.4796 1.81036 15.9038 2.00222C15.3278 2.19422 14.792 2.45325 14.2969 2.77913C13.8012 3.10491 13.3751 3.41086 13.0177 3.69649C12.6608 3.98221 12.3214 4.28585 12 4.60718C11.6785 4.28585 11.3392 3.98221 10.9822 3.69649C10.6249 3.41086 10.1987 3.1051 9.70305 2.77913C9.2075 2.45311 8.67175 2.19427 8.0959 2.00222C7.52009 1.81041 6.95525 1.71439 6.40173 1.71439C4.40166 1.71439 2.8348 2.26796 1.70091 3.37516C0.567022 4.48226 3.05176e-05 6.01788 3.05176e-05 7.98216C3.05176e-05 8.58039 0.105107 9.19659 0.314838 9.83028C0.524569 10.4642 0.763571 11.0045 1.03138 11.4508C1.29913 11.8971 1.60278 12.3325 1.94207 12.7566C2.28136 13.1808 2.52933 13.4729 2.68539 13.6338C2.8416 13.7943 2.96441 13.9105 3.05368 13.9818L11.4107 22.0444C11.5714 22.2052 11.7679 22.2857 12 22.2857C12.2321 22.2857 12.4286 22.2052 12.5893 22.0447L20.933 14.0088C22.9777 11.9644 23.9999 9.95539 23.9999 7.98216C24 6.01788 23.4329 4.48226 22.2991 3.37516Z" fill="#4A47E9"/>
</svg>
