<svg width="24" height="24" viewBox="0 0 24 24" fill="none" xmlns="http://www.w3.org/2000/svg">
<path d="M22.299 3.37516C21.165 2.26782 19.5982 1.71439 17.598 1.71439C17.0445 1.71439 16.4796 1.81036 15.9038 2.00222C15.3278 2.19422 14.792 2.45325 14.2969 2.77913C13.8011 3.10491 13.3751 3.41086 13.0177 3.69649C12.6607 3.98221 12.3214 4.28585 12 4.60718C11.6785 4.28585 11.3392 3.98221 10.9821 3.69649C10.6249 3.41086 10.1987 3.1051 9.70302 2.77913C9.20747 2.45311 8.67172 2.19427 8.09587 2.00222C7.52006 1.81041 6.95522 1.71439 6.40169 1.71439C4.40163 1.71439 2.83477 2.26796 1.70088 3.37516C0.566991 4.48226 0 6.01788 0 7.98216C0 8.58039 0.105077 9.19659 0.314807 9.83028C0.524538 10.4642 0.763541 11.0045 1.03135 11.4508C1.2991 11.8971 1.60275 12.3325 1.94204 12.7566C2.28133 13.1808 2.5293 13.4729 2.68536 13.6338C2.84157 13.7943 2.96438 13.9105 3.05365 13.9818L11.4107 22.0444C11.5714 22.2052 11.7678 22.2857 11.9999 22.2857C12.232 22.2857 12.4286 22.2052 12.5892 22.0447L20.933 14.0088C22.9777 11.9644 23.9999 9.95539 23.9999 7.98216C24 6.01788 23.4329 4.48226 22.299 3.37516Z" fill="#A0A0A0"/>
</svg>
