<svg width="10" height="10" viewBox="0 0 10 10" fill="none" xmlns="http://www.w3.org/2000/svg">
<g clip-path="url(#clip0)">
<path d="M9.29126 1.40631C8.81875 0.944923 8.16593 0.714325 7.33251 0.714325C7.10187 0.714325 6.86649 0.754315 6.62659 0.834256C6.38659 0.914256 6.16332 1.02219 5.95704 1.15797C5.75048 1.29371 5.57297 1.42119 5.42405 1.5402C5.27531 1.65925 5.1339 1.78577 4.99999 1.91966C4.86603 1.78577 4.72465 1.65925 4.57589 1.5402C4.42703 1.42119 4.24944 1.29379 4.04293 1.15797C3.83645 1.02213 3.61322 0.914275 3.37328 0.834256C3.13336 0.754335 2.89801 0.714325 2.66737 0.714325C1.83401 0.714325 1.18115 0.944981 0.7087 1.40631C0.236246 1.86761 0 2.50745 0 3.3259C0 3.57516 0.0437819 3.83191 0.13117 4.09595C0.218558 4.36009 0.318142 4.58519 0.429727 4.77117C0.541293 4.95712 0.667811 5.13854 0.809183 5.31525C0.950556 5.49198 1.05387 5.61371 1.1189 5.68074C1.18399 5.74762 1.23516 5.79603 1.27235 5.82574L4.75444 9.18514C4.82142 9.25217 4.90326 9.28569 4.99997 9.28569C5.09668 9.28569 5.17858 9.25217 5.24552 9.18528L8.72208 5.837C9.57403 4.98515 9.99996 4.14808 9.99996 3.3259C9.99998 2.50745 9.76369 1.86761 9.29126 1.40631Z" fill="white"/>
</g>
<defs>
<clipPath id="clip0">
<rect width="10" height="10" fill="white"/>
</clipPath>
</defs>
</svg>
