<svg width="76" height="20" viewBox="0 0 76 20" fill="none" xmlns="http://www.w3.org/2000/svg">
<path fill-rule="evenodd" clip-rule="evenodd" d="M76 17.5C76 18.8809 74.8806 20 73.5 20C72.1191 20 71 18.8809 71 17.5C71 16.1191 72.1191 15 73.5 15C74.8806 15 76 16.1191 76 17.5Z" fill="#039BE5"/>
<path fill-rule="evenodd" clip-rule="evenodd" d="M55 20V0H69V4.38195H60.0621V7.72458H67.6981V12.1069H60.0621V15.6181H69V20H55Z" fill="#039BE5"/>
<path fill-rule="evenodd" clip-rule="evenodd" d="M44.3003 4.41031H41.6628V8.45511H44.3003C45.5792 8.45511 46.3252 7.472 46.3252 6.43271C46.3252 5.39342 45.5792 4.41031 44.3003 4.41031ZM46.5916 20L43.2347 12.5561H41.6628V20H37V0H44.5135C48.723 0 50.9876 3.14631 50.9876 6.43271C50.9876 9.15733 49.389 10.8708 47.8971 11.6572L52 20H46.5916Z" fill="#039BE5"/>
<path fill-rule="evenodd" clip-rule="evenodd" d="M25.4722 20C21.3613 20 18 17.2145 18 12.8692V0H22.8609V12.7578C22.8609 14.5958 23.8612 15.6547 25.4722 15.6547C27.0836 15.6547 28.1388 14.5958 28.1388 12.7578V0H33V12.8692C33 17.2145 29.5831 20 25.4722 20Z" fill="#039BE5"/>
<path fill-rule="evenodd" clip-rule="evenodd" d="M7.43137 20C4.43109 20 1.98161 19.4475 0 17.4034L3.0825 14.3095C4.10082 15.3312 5.89012 15.6907 7.45889 15.6907C9.35793 15.6907 10.2662 15.0553 10.2662 13.9224C10.2662 13.4532 10.1561 13.0661 9.88085 12.7626C9.63315 12.5136 9.22032 12.3206 8.58696 12.2377L6.22004 11.9062C4.48614 11.6573 3.16541 11.0775 2.28435 10.1659C1.37612 9.22636 0.935758 7.90042 0.935758 6.21536C0.935758 2.62426 3.63329 0 8.0919 0C10.8992 0 13.0184 0.662972 14.6973 2.34803L11.6698 5.38665C10.4313 4.14357 8.80748 4.22645 7.95429 4.22645C6.27543 4.22645 5.58737 5.19328 5.58737 6.04962C5.58737 6.29823 5.66994 6.65734 5.97268 6.96121C6.22004 7.20982 6.63322 7.45844 7.32128 7.54131L9.6882 7.87279C11.4496 8.12141 12.7156 8.67388 13.5413 9.5026C14.5872 10.525 15 11.9887 15 13.8123C15 17.8177 11.5597 20 7.43137 20Z" fill="#039BE5"/>
</svg>
