<svg width="16" height="16" viewBox="0 0 16 16" fill="none" xmlns="http://www.w3.org/2000/svg">
<path d="M10.2857 7.77138C10.2857 9.18767 9.13058 10.3428 7.71429 10.3428C6.29799 10.3428 5.14286 9.18767 5.14286 7.77138C5.14286 6.35508 6.29799 5.19995 7.71429 5.19995C9.13058 5.19995 10.2857 6.35508 10.2857 7.77138ZM11.6719 7.77138C11.6719 5.58165 9.90402 3.81379 7.71429 3.81379C5.52455 3.81379 3.7567 5.58165 3.7567 7.77138C3.7567 9.96111 5.52455 11.729 7.71429 11.729C9.90402 11.729 11.6719 9.96111 11.6719 7.77138ZM12.7567 3.65308C12.7567 3.1408 12.3449 2.72897 11.8326 2.72897C11.3203 2.72897 10.9085 3.1408 10.9085 3.65308C10.9085 4.16535 11.3203 4.57718 11.8326 4.57718C12.3449 4.57718 12.7567 4.16535 12.7567 3.65308ZM7.71429 1.44325C8.83929 1.44325 11.25 1.35285 12.2645 1.75464C12.6161 1.89526 12.8772 2.06602 13.1484 2.33723C13.4196 2.60843 13.5904 2.86959 13.731 3.22116C14.1328 4.23566 14.0424 6.64638 14.0424 7.77138C14.0424 8.89638 14.1328 11.3071 13.731 12.3216C13.5904 12.6732 13.4196 12.9343 13.1484 13.2055C12.8772 13.4767 12.6161 13.6475 12.2645 13.7881C11.25 14.1899 8.83929 14.0995 7.71429 14.0995C6.58929 14.0995 4.17857 14.1899 3.16406 13.7881C2.8125 13.6475 2.55134 13.4767 2.28013 13.2055C2.00893 12.9343 1.83817 12.6732 1.69754 12.3216C1.29576 11.3071 1.38616 8.89638 1.38616 7.77138C1.38616 6.64638 1.29576 4.23566 1.69754 3.22116C1.83817 2.86959 2.00893 2.60843 2.28013 2.33723C2.55134 2.06602 2.8125 1.89526 3.16406 1.75464C4.17857 1.35285 6.58929 1.44325 7.71429 1.44325ZM15.4286 7.77138C15.4286 6.70665 15.4386 5.65196 15.3783 4.58723C15.3181 3.35174 15.0368 2.25687 14.1328 1.35285C13.2288 0.448834 12.1339 0.167584 10.8984 0.107317C9.83371 0.0470489 8.77902 0.0570933 7.71429 0.0570933C6.64955 0.0570933 5.59487 0.0470489 4.53013 0.107317C3.29464 0.167584 2.19978 0.448834 1.29576 1.35285C0.391741 2.25687 0.110491 3.35174 0.0502232 4.58723C-0.0100446 5.65196 0 6.70665 0 7.77138C0 8.83611 -0.0100446 9.8908 0.0502232 10.9555C0.110491 12.191 0.391741 13.2859 1.29576 14.1899C2.19978 15.0939 3.29464 15.3752 4.53013 15.4354C5.59487 15.4957 6.64955 15.4857 7.71429 15.4857C8.77902 15.4857 9.83371 15.4957 10.8984 15.4354C12.1339 15.3752 13.2288 15.0939 14.1328 14.1899C15.0368 13.2859 15.3181 12.191 15.3783 10.9555C15.4386 9.8908 15.4286 8.83611 15.4286 7.77138Z" fill="#039BE5"/>
</svg>
