<svg width="150" height="39" viewBox="0 0 150 39" fill="none" xmlns="http://www.w3.org/2000/svg">
<path fill-rule="evenodd" clip-rule="evenodd" d="M150 34C150 36.7618 147.761 39 145 39C142.238 39 140 36.7618 140 34C140 31.2382 142.238 29 145 29C147.761 29 150 31.2382 150 34Z" fill="white"/>
<path fill-rule="evenodd" clip-rule="evenodd" d="M108 39V0H135V8.54479H117.763V15.0629H132.489V23.6084H117.763V30.4552H135V39H108Z" fill="white"/>
<path fill-rule="evenodd" clip-rule="evenodd" d="M88.0874 8.6001H82.6364V16.4875H88.0874C90.7303 16.4875 92.272 14.5704 92.272 12.5438C92.272 10.5172 90.7303 8.6001 88.0874 8.6001ZM92.8226 39L85.8849 24.4844H82.6364V39H73V0H88.5279C97.2275 0 101.908 6.1353 101.908 12.5438C101.908 17.8568 98.604 21.198 95.5206 22.7316L104 39H92.8226Z" fill="white"/>
<path fill-rule="evenodd" clip-rule="evenodd" d="M51.9444 39C43.7226 39 37 33.5683 37 25.0949V0H46.7218V24.8777C46.7218 28.4619 48.7224 30.5266 51.9444 30.5266C55.1672 30.5266 57.2775 28.4619 57.2775 24.8777V0H67V25.0949C67 33.5683 60.1663 39 51.9444 39Z" fill="white"/>
<path fill-rule="evenodd" clip-rule="evenodd" d="M14.8627 39C8.86218 39 3.96321 37.9227 0 33.9366L6.165 27.9035C8.20165 29.8959 11.7802 30.5968 14.9178 30.5968C18.7159 30.5968 20.5323 29.3579 20.5323 27.1487C20.5323 26.2336 20.3121 25.4788 19.7617 24.887C19.2663 24.4015 18.4406 24.0251 17.1739 23.8635L12.4401 23.2171C8.97227 22.7317 6.33082 21.6011 4.5687 19.8235C2.75223 17.9914 1.87152 15.4058 1.87152 12.12C1.87152 5.11731 7.26658 0 16.1838 0C21.7984 0 26.0368 1.2928 29.3945 4.57865L23.3396 10.504C20.8626 8.07997 17.615 8.24157 15.9086 8.24157C12.5509 8.24157 11.1747 10.1269 11.1747 11.7968C11.1747 12.2816 11.3399 12.9818 11.9454 13.5744C12.4401 14.0591 13.2664 14.5439 14.6426 14.7055L19.3764 15.3519C22.8992 15.8367 25.4313 16.9141 27.0826 18.5301C29.1743 20.5238 30 23.378 30 26.9339C30 34.7445 23.1194 39 14.8627 39Z" fill="white"/>
</svg>
