<svg width="100" height="100" viewBox="0 0 100 100" fill="none" xmlns="http://www.w3.org/2000/svg">
<path d="M99.5 50C99.5 77.3381 77.3381 99.5 50 99.5C22.6619 99.5 0.5 77.3381 0.5 50C0.5 22.6619 22.6619 0.5 50 0.5C77.3381 0.5 99.5 22.6619 99.5 50Z" fill="#F2F4F7" stroke="#DADFE9"/>
<path d="M71.5 58C71.5 69.8741 61.8741 79.5 50 79.5C38.1259 79.5 28.5 69.8741 28.5 58C28.5 46.1259 38.1259 36.5 50 36.5C61.8741 36.5 71.5 46.1259 71.5 58Z" fill="white" stroke="#039BE5"/>
<g filter="url(#filter0_i)">
<path fill-rule="evenodd" clip-rule="evenodd" d="M50 77.7627C60.9146 77.7627 69.7627 68.9146 69.7627 58C69.7627 47.0853 60.9146 38.2373 50 38.2373C39.0853 38.2373 30.2373 47.0853 30.2373 58C30.2373 68.9146 39.0853 77.7627 50 77.7627Z" fill="white"/>
</g>
<path d="M69.2627 58C69.2627 68.6385 60.6385 77.2627 50 77.2627C39.3615 77.2627 30.7373 68.6385 30.7373 58C30.7373 47.3615 39.3615 38.7373 50 38.7373C60.6385 38.7373 69.2627 47.3615 69.2627 58Z" stroke="#039BE5"/>
<path d="M71.5 58C71.5 69.8741 61.8741 79.5 50 79.5C38.1259 79.5 28.5 69.8741 28.5 58C28.5 46.1259 38.1259 36.5 50 36.5C61.8741 36.5 71.5 46.1259 71.5 58Z" fill="white" stroke="#039BE5"/>
<g filter="url(#filter1_i)">
<path fill-rule="evenodd" clip-rule="evenodd" d="M50 77.7627C60.9146 77.7627 69.7627 68.9146 69.7627 58C69.7627 47.0853 60.9146 38.2373 50 38.2373C39.0853 38.2373 30.2373 47.0853 30.2373 58C30.2373 68.9146 39.0853 77.7627 50 77.7627Z" fill="#F2F4F7"/>
</g>
<path d="M69.2627 58C69.2627 68.6385 60.6385 77.2627 50 77.2627C39.3615 77.2627 30.7373 68.6385 30.7373 58C30.7373 47.3615 39.3615 38.7373 50 38.7373C60.6385 38.7373 69.2627 47.3615 69.2627 58Z" stroke="#039BE5"/>
<g filter="url(#filter2_d)">
<path fill-rule="evenodd" clip-rule="evenodd" d="M43.6203 21H58.6075L61.61 27.4799L51.0019 40.8283L40.5194 27.4799L43.6203 21Z" fill="white" stroke="#039BE5"/>
<path fill-rule="evenodd" clip-rule="evenodd" d="M47.3333 27.1538L44.4 21H50.2667L47.3333 27.1538Z" fill="#DADFE9" stroke="#039BE5"/>
<path fill-rule="evenodd" clip-rule="evenodd" d="M54.6667 27.1538L51.7333 21H57.7617L54.6667 27.1538Z" fill="#DADFE9" stroke="#039BE5"/>
<path fill-rule="evenodd" clip-rule="evenodd" d="M51 39.4615L47.3333 27.1539H54.6667L51 39.4615Z" fill="#DADFE9" stroke="#039BE5"/>
<path d="M40.7333 27.1538H61.3107" stroke="#039BE5" stroke-linecap="square"/>
</g>
<defs>
<filter id="filter0_i" x="30.2373" y="38.2373" width="39.5254" height="39.5254" filterUnits="userSpaceOnUse" color-interpolation-filters="sRGB">
<feFlood flood-opacity="0" result="BackgroundImageFix"/>
<feBlend mode="normal" in="SourceGraphic" in2="BackgroundImageFix" result="shape"/>
<feColorMatrix in="SourceAlpha" type="matrix" values="0 0 0 0 0 0 0 0 0 0 0 0 0 0 0 0 0 0 127 0" result="hardAlpha"/>
<feOffset dy="2"/>
<feComposite in2="hardAlpha" operator="arithmetic" k2="-1" k3="1"/>
<feColorMatrix type="matrix" values="0 0 0 0 0 0 0 0 0 0 0 0 0 0 0 0 0 0 0.109205 0"/>
<feBlend mode="normal" in2="shape" result="effect1_innerShadow"/>
</filter>
<filter id="filter1_i" x="30.2373" y="38.2373" width="39.5254" height="39.5254" filterUnits="userSpaceOnUse" color-interpolation-filters="sRGB">
<feFlood flood-opacity="0" result="BackgroundImageFix"/>
<feBlend mode="normal" in="SourceGraphic" in2="BackgroundImageFix" result="shape"/>
<feColorMatrix in="SourceAlpha" type="matrix" values="0 0 0 0 0 0 0 0 0 0 0 0 0 0 0 0 0 0 127 0" result="hardAlpha"/>
<feOffset dy="2"/>
<feComposite in2="hardAlpha" operator="arithmetic" k2="-1" k3="1"/>
<feColorMatrix type="matrix" values="0 0 0 0 0 0 0 0 0 0 0 0 0 0 0 0 0 0 0.109205 0"/>
<feBlend mode="normal" in2="shape" result="effect1_innerShadow"/>
</filter>
<filter id="filter2_d" x="37.9342" y="19.5" width="26.2591" height="25.1349" filterUnits="userSpaceOnUse" color-interpolation-filters="sRGB">
<feFlood flood-opacity="0" result="BackgroundImageFix"/>
<feColorMatrix in="SourceAlpha" type="matrix" values="0 0 0 0 0 0 0 0 0 0 0 0 0 0 0 0 0 0 127 0"/>
<feOffset dy="1"/>
<feGaussianBlur stdDeviation="1"/>
<feColorMatrix type="matrix" values="0 0 0 0 0 0 0 0 0 0 0 0 0 0 0 0 0 0 0.15 0"/>
<feBlend mode="normal" in2="BackgroundImageFix" result="effect1_dropShadow"/>
<feBlend mode="normal" in="SourceGraphic" in2="effect1_dropShadow" result="shape"/>
</filter>
</defs>
</svg>
