<svg width="100" height="100" viewBox="0 0 100 100" fill="none" xmlns="http://www.w3.org/2000/svg">
<path d="M99.5 50C99.5 77.3381 77.3381 99.5 50 99.5C22.6619 99.5 0.5 77.3381 0.5 50C0.5 22.6619 22.6619 0.5 50 0.5C77.3381 0.5 99.5 22.6619 99.5 50Z" fill="#F2F4F7" stroke="#DADFE9"/>
<path fill-rule="evenodd" clip-rule="evenodd" d="M50.5 15L69 35H32L50.5 15Z" stroke="#016CB7"/>
<g filter="url(#filter0_d)">
<rect x="75" y="33" width="40" height="50" rx="3" transform="rotate(90 75 33)" fill="white"/>
<rect x="74.5" y="33.5" width="39" height="49" rx="2.5" transform="rotate(90 74.5 33.5)" stroke="#039BE5"/>
</g>
<path fill-rule="evenodd" clip-rule="evenodd" d="M29 59.5395L39.5625 52.9353L50.1221 58.5191L63.2012 47L70.8599 55.665V69.57H29V59.5395Z" fill="#D5DAE4"/>
<g filter="url(#filter1_i)">
<path d="M71.5 36.5V69.5H63.5957H28.5V36.5H68.043H71.5Z" stroke="#039BE5"/>
</g>
<rect x="49" y="14" width="3" height="3" rx="1.5" fill="#039BE5"/>
<rect x="38" y="42" width="8" height="8" rx="3.5" fill="#D5DAE4"/>
<defs>
<filter id="filter0_d" x="23" y="32" width="54" height="44" filterUnits="userSpaceOnUse" color-interpolation-filters="sRGB">
<feFlood flood-opacity="0" result="BackgroundImageFix"/>
<feColorMatrix in="SourceAlpha" type="matrix" values="0 0 0 0 0 0 0 0 0 0 0 0 0 0 0 0 0 0 127 0"/>
<feOffset dy="1"/>
<feGaussianBlur stdDeviation="1"/>
<feColorMatrix type="matrix" values="0 0 0 0 0 0 0 0 0 0 0 0 0 0 0 0 0 0 0.15 0"/>
<feBlend mode="normal" in2="BackgroundImageFix" result="effect1_dropShadow"/>
<feBlend mode="normal" in="SourceGraphic" in2="effect1_dropShadow" result="shape"/>
</filter>
<filter id="filter1_i" x="28" y="36" width="44" height="34" filterUnits="userSpaceOnUse" color-interpolation-filters="sRGB">
<feFlood flood-opacity="0" result="BackgroundImageFix"/>
<feBlend mode="normal" in="SourceGraphic" in2="BackgroundImageFix" result="shape"/>
<feColorMatrix in="SourceAlpha" type="matrix" values="0 0 0 0 0 0 0 0 0 0 0 0 0 0 0 0 0 0 127 0" result="hardAlpha"/>
<feOffset dy="2"/>
<feComposite in2="hardAlpha" operator="arithmetic" k2="-1" k3="1"/>
<feColorMatrix type="matrix" values="0 0 0 0 0 0 0 0 0 0 0 0 0 0 0 0 0 0 0.1 0"/>
<feBlend mode="normal" in2="shape" result="effect1_innerShadow"/>
</filter>
</defs>
</svg>
