<svg width="17" height="14" viewBox="0 0 17 14" fill="none" xmlns="http://www.w3.org/2000/svg">
<path d="M16.2723 1.86959C15.6897 2.12071 15.0569 2.30151 14.404 2.37183C15.077 1.97004 15.5893 1.33723 15.8304 0.58388C15.2076 0.955531 14.5045 1.22674 13.7712 1.36736C13.1786 0.734549 12.3348 0.342808 11.4007 0.342808C9.60268 0.342808 8.15625 1.79928 8.15625 3.58723C8.15625 3.83834 8.18638 4.08946 8.23661 4.33053C5.54464 4.18991 3.14397 2.90419 1.54688 0.935442C1.26562 1.41758 1.10491 1.97004 1.10491 2.57272C1.10491 3.69772 1.67746 4.69214 2.55134 5.27473C2.01897 5.25464 1.51674 5.10397 1.08482 4.8629C1.08482 4.87294 1.08482 4.89303 1.08482 4.90308C1.08482 6.48008 2.19978 7.78589 3.68638 8.08723C3.41518 8.15754 3.12388 8.19772 2.83259 8.19772C2.62165 8.19772 2.42076 8.17763 2.21987 8.1475C2.6317 9.43321 3.82701 10.3674 5.25335 10.3975C4.13839 11.2714 2.74219 11.7837 1.22545 11.7837C0.954241 11.7837 0.703125 11.7736 0.441964 11.7435C1.87835 12.6676 3.58594 13.2 5.42411 13.2C11.3906 13.2 14.6551 8.25799 14.6551 3.96892C14.6551 3.8283 14.6551 3.68767 14.6451 3.54705C15.2779 3.085 15.8304 2.51245 16.2723 1.86959Z" fill="#039BE5"/>
</svg>
