<svg width="50" height="37" viewBox="0 0 50 37" fill="none" xmlns="http://www.w3.org/2000/svg">
<path d="M15.5268 30.3304C15.875 29.9821 15.875 29.4464 15.5268 29.0982L5 18.5714L15.5268 8.04464C15.875 7.69643 15.875 7.16071 15.5268 6.8125L14.1875 5.47321C13.8393 5.125 13.3036 5.125 12.9554 5.47321L0.473214 17.9554C0.125 18.3036 0.125 18.8393 0.473214 19.1875L12.9554 31.6696C13.3036 32.0179 13.8393 32.0179 14.1875 31.6696L15.5268 30.3304ZM31.3571 1.75C31.4911 1.29464 31.2232 0.812497 30.7679 0.67857L29.1071 0.223212C28.6786 0.0892849 28.1964 0.357142 28.0625 0.812497L18.0714 35.3929C17.9375 35.8482 18.2054 36.3304 18.6607 36.4643L20.3214 36.9196C20.75 37.0536 21.2321 36.7857 21.3661 36.3304L31.3571 1.75ZM48.9554 19.1875C49.3036 18.8393 49.3036 18.3036 48.9554 17.9554L36.4732 5.47321C36.125 5.125 35.5893 5.125 35.2411 5.47321L33.9018 6.8125C33.5536 7.16071 33.5536 7.69643 33.9018 8.04464L44.4286 18.5714L33.9018 29.0982C33.5536 29.4464 33.5536 29.9821 33.9018 30.3304L35.2411 31.6696C35.5893 32.0179 36.125 32.0179 36.4732 31.6696L48.9554 19.1875Z" fill="#016CB7"/>
</svg>
