<svg width="48" height="49" viewBox="0 0 48 49" fill="none" xmlns="http://www.w3.org/2000/svg">
<path d="M47.0089 12.9911C45.6696 11.6518 43.5 11.6518 42.1607 12.9911L31.4196 23.7054L25.1518 17.4375L35.8661 6.69643C37.2054 5.38393 37.2054 3.1875 35.8661 1.84821C34.5268 0.535712 32.3571 0.535712 31.0179 1.84821L20.3036 12.5893L16.2857 8.57143L12 12.8571C6.13393 18.7232 5.30357 27.6696 9.69643 34.3125L0 44.0089V48.8571H4.84821L14.5446 39.1607C21.1875 43.5536 30.1339 42.7232 36 36.8571L40.2857 32.5714L36.2679 28.5536L47.0089 17.8393C48.3214 16.5 48.3214 14.3304 47.0089 12.9911Z" fill="#016CB7"/>
</svg>
