<svg width="52" height="46" viewBox="0 0 52 46" fill="none" xmlns="http://www.w3.org/2000/svg">
<path d="M48 27.4286C48 27.8839 47.5982 28.2857 47.1429 28.2857H4.28571C3.83036 28.2857 3.42857 27.8839 3.42857 27.4286V5.14285C3.42857 4.6875 3.83036 4.28571 4.28571 4.28571H47.1429C47.5982 4.28571 48 4.6875 48 5.14285V27.4286ZM51.4286 5.14285C51.4286 2.78571 49.5 0.85714 47.1429 0.85714H4.28571C1.92857 0.85714 0 2.78571 0 5.14285V34.2857C0 36.6429 1.92857 38.5714 4.28571 38.5714H18.8571C18.8571 40.9018 17.1429 42.7232 17.1429 43.7143C17.1429 44.6518 17.9196 45.4286 18.8571 45.4286H32.5714C33.5089 45.4286 34.2857 44.6518 34.2857 43.7143C34.2857 42.7768 32.5714 40.8482 32.5714 38.5714H47.1429C49.5 38.5714 51.4286 36.6429 51.4286 34.2857V5.14285Z" fill="#016CB7"/>
</svg>
